{"accessors" : [{"bufferView" : 0, "byteOffset" : 0, "componentType" : 5123, "count" : 18, "type" : "SCALAR", "max" : [17], "min" : [0]}, {"bufferView" : 1, "byteOffset" : 0, "componentType" : 5126, "count" : 18, "type" : "VEC3", "max" : [0.13197799026966095, 0.02832208387553692, 0.027374999597668648], "min" : [0.10802798718214035, 0.009411058388650417, 0.025575000792741776], "name" : "POSITION"}, {"bufferView" : 1, "byteOffset" : 12, "componentType" : 5126, "count" : 18, "type" : "VEC3", "max" : [0.592338502407074, 0, 1.0000044107437134], "min" : [-1.2779602180160968E-15, -0.805694580078125, -1.0000044107437134], "name" : "NORMAL"}, {"bufferView" : 1, "byteOffset" : 24, "componentType" : 5126, "count" : 18, "type" : "VEC2", "max" : [441.81695556640625, 1.75], "min" : [58.50398254394531, 0.8500000238418579], "name" : "TEXCOORD_0"}, {"bufferView" : 0, "byteOffset" : 36, "componentType" : 5123, "count" : 6, "type" : "SCALAR", "max" : [5], "min" : [0]}, {"bufferView" : 2, "byteOffset" : 0, "componentType" : 5126, "count" : 6, "type" : "VEC3", "max" : [0.13197799026966095, 0.02832208387553692, 0.027374999597668648], "min" : [0.10802798718214035, 0.010714287869632244, 0.025575000792741776], "name" : "POSITION"}, {"bufferView" : 2, "byteOffset" : 12, "componentType" : 5126, "count" : 6, "type" : "VEC3", "max" : [-0.592338502407074, 0.805694580078125, 0], "min" : [-0.592338502407074, 0.805694580078125, 0], "name" : "NORMAL"}, {"bufferView" : 2, "byteOffset" : 24, "componentType" : 5126, "count" : 6, "type" : "VEC2", "max" : [952.7166137695312, 1.75], "min" : [937.8535766601562, 0.8500000238418579], "name" : "TEXCOORD_0"}, {"bufferView" : 0, "byteOffset" : 48, "componentType" : 5123, "count" : 12, "type" : "SCALAR", "max" : [11], "min" : [0]}, {"bufferView" : 3, "byteOffset" : 0, "componentType" : 5126, "count" : 12, "type" : "VEC3", "max" : [0.13197799026966095, 0.02832208387553692, 0.027374999597668648], "min" : [0.10802798718214035, 0.009411058388650417, 0.025575000792741776], "name" : "POSITION"}, {"bufferView" : 3, "byteOffset" : 12, "componentType" : 5126, "count" : 12, "type" : "VEC3", "max" : [1.0000044107437134, 0, 0], "min" : [-1.0000044107437134, -1.7447024727723637E-12, 0], "name" : "NORMAL"}, {"bufferView" : 3, "byteOffset" : 24, "componentType" : 5126, "count" : 12, "type" : "VEC2", "max" : [0.3499999940395355, 1.600000023841858], "min" : [2.979827273819069E-09, 1], "name" : "TEXCOORD_0"}, {"bufferView" : 0, "byteOffset" : 72, "componentType" : 5123, "count" : 1041, "type" : "SCALAR", "max" : [940], "min" : [0]}, {"bufferView" : 4, "byteOffset" : 0, "componentType" : 5126, "count" : 941, "type" : "VEC3", "max" : [0.13231799006462097, 0.028312083333730698, 0.027374999597668648], "min" : [0.13197799026966095, 0.027028854936361313, 0.02597999945282936], "name" : "POSITION"}, {"bufferView" : 4, "byteOffset" : 12, "componentType" : 5126, "count" : 941, "type" : "VEC3", "max" : [0.592338502407074, 1.0000044107437134, 1.0000044107437134], "min" : [-0.2873618006706238, -1.0000044107437134, -1.0000044107437134], "name" : "NORMAL"}, {"bufferView" : 4, "byteOffset" : 24, "componentType" : 5126, "count" : 941, "type" : "VEC2", "max" : [903.7366333007812, 1.5078414678573608], "min" : [48.344783782958984, 0.9125000238418579], "name" : "TEXCOORD_0"}, {"bufferView" : 0, "byteOffset" : 2156, "componentType" : 5123, "count" : 855, "type" : "SCALAR", "max" : [683], "min" : [0]}, {"bufferView" : 5, "byteOffset" : 0, "componentType" : 5126, "count" : 684, "type" : "VEC3", "max" : [0.13231799006462097, 0.028312083333730698, 0.027374999597668648], "min" : [0.13197799026966095, 0.027028854936361313, 0.02597999945282936], "name" : "POSITION"}, {"bufferView" : 5, "byteOffset" : 12, "componentType" : 5126, "count" : 684, "type" : "VEC3", "max" : [1.0000044107437134, 1.7433792040208451E-12, 6.1785856955069805E-15], "min" : [-1.0000044107437134, -0.9578267335891724, -8.009718885056746E-15], "name" : "NORMAL"}, {"bufferView" : 5, "byteOffset" : 24, "componentType" : 5126, "count" : 684, "type" : "VEC2", "max" : [0.3446287214756012, 1.465000033378601], "min" : [2.2530961540923045E-09, 1], "name" : "TEXCOORD_0"}, {"bufferView" : 0, "byteOffset" : 3868, "componentType" : 5123, "count" : 954, "type" : "SCALAR", "max" : [868], "min" : [0]}, {"bufferView" : 6, "byteOffset" : 0, "componentType" : 5126, "count" : 869, "type" : "VEC3", "max" : [0.10802798718214035, 0.010704287327826023, 0.027374999597668648], "min" : [0.10768799483776093, 0.009421057999134064, 0.02597999945282936], "name" : "POSITION"}, {"bufferView" : 6, "byteOffset" : 12, "componentType" : 5126, "count" : 869, "type" : "VEC3", "max" : [0.2873618006706238, 1.0000044107437134, 1.0000044107437134], "min" : [0, -1.0000044107437134, -1.0000044107437134], "name" : "NORMAL"}, {"bufferView" : 6, "byteOffset" : 24, "componentType" : 5126, "count" : 869, "type" : "VEC2", "max" : [615.7277221679688, 1.4348143339157104], "min" : [211.26075744628906, 0.9138427972793579], "name" : "TEXCOORD_0"}, {"bufferView" : 0, "byteOffset" : 5776, "componentType" : 5123, "count" : 87, "type" : "SCALAR", "max" : [68], "min" : [0]}, {"bufferView" : 7, "byteOffset" : 0, "componentType" : 5126, "count" : 69, "type" : "VEC3", "max" : [0.10801438987255096, 0.010704287327826023, 0.027374999597668648], "min" : [0.10789799690246582, 0.01061871275305748, 0.026301473379135132], "name" : "POSITION"}, {"bufferView" : 7, "byteOffset" : 12, "componentType" : 5126, "count" : 69, "type" : "VEC3", "max" : [-0.592338502407074, 0.805694580078125, 0], "min" : [-0.592338502407074, 0.805694580078125, 0], "name" : "NORMAL"}, {"bufferView" : 7, "byteOffset" : 24, "componentType" : 5126, "count" : 69, "type" : "VEC2", "max" : [69.31884765625, 1.5078414678573608], "min" : [69.2466049194336, 0.9710792899131775], "name" : "TEXCOORD_0"}, {"bufferView" : 0, "byteOffset" : 5952, "componentType" : 5123, "count" : 855, "type" : "SCALAR", "max" : [683], "min" : [0]}, {"bufferView" : 8, "byteOffset" : 0, "componentType" : 5126, "count" : 684, "type" : "VEC3", "max" : [0.10802798718214035, 0.010704287327826023, 0.027374999597668648], "min" : [0.10768799483776093, 0.009421057999134064, 0.02597999945282936], "name" : "POSITION"}, {"bufferView" : 8, "byteOffset" : 12, "componentType" : 5126, "count" : 684, "type" : "VEC3", "max" : [1.0000044107437134, 0.9578267335891724, 1.692770317157906E-27], "min" : [-1.0000044107437134, 0, 0], "name" : "NORMAL"}, {"bufferView" : 8, "byteOffset" : 24, "componentType" : 5126, "count" : 684, "type" : "VEC2", "max" : [0.3446287214756012, 1.465000033378601], "min" : [-1.4675579640410774E-09, 1], "name" : "TEXCOORD_0"}], "asset" : {"generator" : "Aspose.3D 23.2", "version" : "2.0"}, "buffers" : [{"uri" : "data:application/octet-stream;base64,", "byteLength" : 130196}], "bufferViews" : [{"buffer" : 0, "byteOffset" : 0, "byteLength" : 7664, "target" : 34963}, {"buffer" : 0, "byteOffset" : 7668, "byteLength" : 576, "byteStride" : 32, "target" : 34962}, {"buffer" : 0, "byteOffset" : 8248, "byteLength" : 192, "byteStride" : 32, "target" : 34962}, {"buffer" : 0, "byteOffset" : 8444, "byteLength" : 384, "byteStride" : 32, "target" : 34962}, {"buffer" : 0, "byteOffset" : 8832, "byteLength" : 33312, "byteStride" : 32, "target" : 34962}, {"buffer" : 0, "byteOffset" : 42148, "byteLength" : 27360, "byteStride" : 32, "target" : 34962}, {"buffer" : 0, "byteOffset" : 69512, "byteLength" : 30528, "byteStride" : 32, "target" : 34962}, {"buffer" : 0, "byteOffset" : 100044, "byteLength" : 2784, "byteStride" : 32, "target" : 34962}, {"buffer" : 0, "byteOffset" : 102832, "byteLength" : 27360, "byteStride" : 32, "target" : 34962}], "images" : [{"uri" : "data:image/jpeg;base64,"}, {"uri" : "data:image/jpeg;base64,"}], "materials" : [{"name" : "Hinoki_0.000000", "pbrMetallicRoughness" : {"baseColorFactor" : [1, 1, 1, 1], "baseColorTexture" : {"index" : 0, "texCoord" : 0}, "metallicFactor" : 0.400000005960464, "roughnessFactor" : 0.953462600708008}, "emissiveFactor" : [0, 0, 0], "alphaMode" : "OPAQUE", "doubleSided" : false}, {"name" : "Hinoki_0.000000", "pbrMetallicRoughness" : {"baseColorFactor" : [1, 1, 1, 1], "baseColorTexture" : {"index" : 0, "texCoord" : 0}, "metallicFactor" : 0.400000005960464, "roughnessFactor" : 0.953462600708008}, "emissiveFactor" : [0, 0, 0], "alphaMode" : "OPAQUE", "doubleSided" : false}, {"name" : "Hinoki_0.000000", "pbrMetallicRoughness" : {"baseColorFactor" : [1, 1, 1, 1], "baseColorTexture" : {"index" : 1, "texCoord" : 0}, "metallicFactor" : 0.400000005960464, "roughnessFactor" : 0.953462600708008}, "emissiveFactor" : [0, 0, 0], "alphaMode" : "OPAQUE", "doubleSided" : false}, {"name" : "Hinoki_0.000000", "pbrMetallicRoughness" : {"baseColorFactor" : [1, 1, 1, 1], "baseColorTexture" : {"index" : 0, "texCoord" : 0}, "metallicFactor" : 0.400000005960464, "roughnessFactor" : 0.953462600708008}, "emissiveFactor" : [0, 0, 0], "alphaMode" : "OPAQUE", "doubleSided" : false}, {"name" : "Hinoki_0.000000", "pbrMetallicRoughness" : {"baseColorFactor" : [1, 1, 1, 1], "baseColorTexture" : {"index" : 1, "texCoord" : 0}, "metallicFactor" : 0.400000005960464, "roughnessFactor" : 0.953462600708008}, "emissiveFactor" : [0, 0, 0], "alphaMode" : "OPAQUE", "doubleSided" : false}, {"name" : "Hinoki_0.000000", "pbrMetallicRoughness" : {"baseColorFactor" : [1, 1, 1, 1], "baseColorTexture" : {"index" : 0, "texCoord" : 0}, "metallicFactor" : 0.400000005960464, "roughnessFactor" : 0.953462600708008}, "emissiveFactor" : [0, 0, 0], "alphaMode" : "OPAQUE", "doubleSided" : false}, {"name" : "Hinoki_0.000000", "pbrMetallicRoughness" : {"baseColorFactor" : [1, 1, 1, 1], "baseColorTexture" : {"index" : 0, "texCoord" : 0}, "metallicFactor" : 0.400000005960464, "roughnessFactor" : 0.953462600708008}, "emissiveFactor" : [0, 0, 0], "alphaMode" : "OPAQUE", "doubleSided" : false}, {"name" : "Hinoki_0.000000", "pbrMetallicRoughness" : {"baseColorFactor" : [1, 1, 1, 1], "baseColorTexture" : {"index" : 1, "texCoord" : 0}, "metallicFactor" : 0.400000005960464, "roughnessFactor" : 0.953462600708008}, "emissiveFactor" : [0, 0, 0], "alphaMode" : "OPAQUE", "doubleSided" : false}], "meshes" : [{"primitives" : [{"attributes" : {"POSITION" : 1, "NORMAL" : 2, "TEXCOORD_0" : 3}, "indices" : 0, "material" : 0, "mode" : 4}]}, {"primitives" : [{"attributes" : {"POSITION" : 5, "NORMAL" : 6, "TEXCOORD_0" : 7}, "indices" : 4, "material" : 1, "mode" : 4}]}, {"primitives" : [{"attributes" : {"POSITION" : 9, "NORMAL" : 10, "TEXCOORD_0" : 11}, "indices" : 8, "material" : 2, "mode" : 4}]}, {"primitives" : [{"attributes" : {"POSITION" : 13, "NORMAL" : 14, "TEXCOORD_0" : 15}, "indices" : 12, "material" : 3, "mode" : 4}]}, {"primitives" : [{"attributes" : {"POSITION" : 17, "NORMAL" : 18, "TEXCOORD_0" : 19}, "indices" : 16, "material" : 4, "mode" : 4}]}, {"primitives" : [{"attributes" : {"POSITION" : 21, "NORMAL" : 22, "TEXCOORD_0" : 23}, "indices" : 20, "material" : 5, "mode" : 4}]}, {"primitives" : [{"attributes" : {"POSITION" : 25, "NORMAL" : 26, "TEXCOORD_0" : 27}, "indices" : 24, "material" : 6, "mode" : 4}]}, {"primitives" : [{"attributes" : {"POSITION" : 29, "NORMAL" : 30, "TEXCOORD_0" : 31}, "indices" : 28, "material" : 7, "mode" : 4}]}], "nodes" : [{"mesh" : 0, "name" : "Mesh_0"}, {"mesh" : 1, "name" : "Mesh_1"}, {"mesh" : 2, "name" : "Mesh_2"}, {"mesh" : 3, "name" : "Mesh_3"}, {"mesh" : 4, "name" : "Mesh_4"}, {"mesh" : 5, "name" : "Mesh_5"}, {"mesh" : 6, "name" : "Mesh_6"}, {"mesh" : 7, "name" : "Mesh_7"}, {"children" : [0, 1, 2, 3, 4, 5, 6, 7], "matrix" : [100, 0, 0, 0, 0, 3.422854299994782E-06, -99.9999965771457, 0, 0, 99.9999965771457, 3.422854299994782E-06, 0, 0, 0, 0, 1], "name" : "_0"}, {"children" : [8], "name" : "RootNode"}], "samplers" : [{"magFilter" : 9728, "minFilter" : 9728, "wrapS" : 10497, "wrapT" : 10497}, {"magFilter" : 9728, "minFilter" : 9728, "wrapS" : 10497, "wrapT" : 10497}], "scene" : 0, "scenes" : [{"nodes" : [9]}], "textures" : [{"sampler" : 0, "source" : 0, "name" : ""}, {"sampler" : 1, "source" : 1, "name" : ""}]}